<svg xmlns:xlink="http://www.w3.org/1999/xlink" xmlns="http://www.w3.org/2000/svg" viewBox="0 0 23 19" width="23"  height="19" ><defs><symbol id="filters" viewBox="0 0 23 19" fill="#68696B"><path d="M22.083 7.46c-.004 1.507-.955 2.866-2.52 3.36v5.945c0 .547-.266.943-.75 1.08a1.01 1.01 0 0 1-1.27-.839 2.486 2.486 0 0 1-.017-.342c0-.436 0-4.36.003-5.89a3.491 3.491 0 0 1-2.395-3.334 3.486 3.486 0 0 1 2.394-3.31c-.008-.407-.007-.83 0-1.35.006-.43.223-.77.615-.94a.976.976 0 0 1 1.066.165c.239.205.355.485.354.81a269.4 269.4 0 0 0 0 1.265c1.572.496 2.524 1.866 2.52 3.38zm-2.043.002a1.435 1.435 0 0 0-1.424-1.457c-.777-.015-1.413.61-1.442 1.427-.027.768.608 1.44 1.38 1.46.824.023 1.466-.594 1.486-1.43l.315.008-.315-.008zm-18.123.003A3.482 3.482 0 0 1 4.312 4.13a24.525 24.525 0 0 1-.006-.927l.001-.138.002-.235c.003-.607.418-1.065.999-1.074.584-.01 1.021.435 1.035 1.042.01.434.01.866 0 1.294 1.408.444 2.261 1.428 2.484 2.883.262 1.708-.82 3.368-2.485 3.836l.004 3.392v.555c0 1.25 0 .929.002 1.96 0 .489-.169.848-.58 1.05-.67.33-1.435-.147-1.457-.9-.006-.196-.007.27-.004-.056l.001-.338c0-.396 0-4.674.003-5.704a3.48 3.48 0 0 1-2.394-3.305zm2.046-.024c-.002.816.622 1.45 1.425 1.452A1.423 1.423 0 0 0 6.82 7.468C6.82 6.646 6.187 6 5.387 6.003A1.429 1.429 0 0 0 3.963 7.44h-.316.316zm4.57 4.978a3.48 3.48 0 0 1 2.396-3.306c-.004-1.03-.004-1.86-.004-3.718V4.344 3.7v-.544l-.001-.338c-.002-.325-.002.14.004-.057.023-.752.788-1.229 1.457-.9.412.203.58.563.58 1.052-.001 1.03-.002.963-.002 2.213v.554c0 1.106-.002 2.006-.004 3.393 1.665.467 2.747 2.128 2.486 3.835-.223 1.455-1.077 2.44-2.485 2.884.01.428.01.61 0 1.045-.014.607-.45 1.052-1.035 1.043-.58-.01-.996-.468-1-1.075 0-.117-.003-.785.004-1.051a3.482 3.482 0 0 1-2.395-3.335zm2.047.023h-.316.316a1.429 1.429 0 0 0 1.424 1.439c.8.002 1.434-.643 1.433-1.465a1.423 1.423 0 0 0-1.432-1.426c-.802.002-1.427.637-1.425 1.452z" fill-rule="nonzero" stroke="#F3F5F5" stroke-width="0.5px" fill="#68696B"></path></symbol></defs><use xlink:href="#filters" fill="#E32207"></use></svg>